<svg xmlns="http://www.w3.org/2000/svg" width="456" height="456" viewBox="0 0 456 456"  fill="#000000">
	<path d="M 0 0 h 24 v 24 H 0 V 0 z" fill="none" />
	<path
        d="M 231.5 363 c 15.5 0 28.1 -11.9 28.1 -26.4 h -56.3 c 0 14.5 12.7 26.4 28.1 26.4 z m 84.4 -79.2 v -66 c 0 -40.5 -22.9 -74.5 -63.3 -83.5 V 125.3 c 0 -11 -9.4 -19.8 -21.1 -19.8 s -21.1 8.8 -21.1 19.8 v 9 C 170.2 143.3 147.1 177.1 147.1 217.7 v 66 l -28.1 26.4 v 13.2 h 225 v -13.2 l -28.1 -26.4 z m -28.1 13.2 H 175.3 v -79.2 c 0 -32.7 21.2 -59.4 56.3 -59.4 s 56.2 26.7 56.2 59.4 v 79.2 z" />
</svg>